# xmcd
#
# Track frame offsets:
#	150
#	12500
#	26252
#	37462
#	51885
#	66485
#	77042
#	86330
#	97255
#	110627
#	120690
#	131277
#
# Disc length: 1917 seconds
#
# Revision: 0
# Processed by: cddbd v1.5.2PL0 Copyright (c) Steve Scherf et al.
# Submitted via: EasyCDDAExtractor 15.3.0.1
#
DISCID=a5077b0c
DTITLE=Sam Cooke and The Soul Stirrers - Wonderful
DYEAR=1956
DGENRE=Soul
TTITLE0=Peace in the Valley
TTITLE1=Nearer to Thee
TTITLE2=Be with me Jesus
TTITLE3=One more river
TTITLE4=I'm so glad (Trouble don't last always)
TTITLE5=Wonderful
TTITLE6=Touch the Hem of his Garment
TTITLE7=Loveable
TTITLE8=Forever
TTITLE9=I'll come running back to you
TTITLE10=That's all I need to know
TTITLE11=I don't want to cry
EXTD=
EXTT0=
EXTT1=
EXTT2=
EXTT3=
EXTT4=
EXTT5=
EXTT6=
EXTT7=
EXTT8=
EXTT9=
EXTT10=
EXTT11=
PLAYORDER=
